<svg width="362" height="439" viewBox="0 0 362 439" fill="none" xmlns="http://www.w3.org/2000/svg">
<path d="M38.8391 295.075C-50.1335 186.503 23.3992 15.7021 161.667 1.09109C326.81 -16.3515 425.031 179.303 315.182 304.217L181.578 438.66L38.8391 295.075ZM328.917 179.546C328.756 179.271 325.604 178.268 324.301 177.005C271.146 125.228 223.781 48.597 138.266 85.1973C108.399 97.9799 64.1864 151.521 38.8874 176.18C35.5903 179.384 30.0416 179.271 34.7057 185.112C38.8552 190.29 48.4569 196.843 53.3623 201.891C78.5809 227.925 114.366 272.972 149.331 283.376C224.794 305.835 263.571 248.766 308.99 201.891C313.895 196.827 323.497 190.29 327.646 185.112C328.901 183.542 329.995 181.407 328.917 179.546Z" fill="#FF395C"/>
<path d="M221.995 217.135C172.716 274.575 91.8812 196.861 141.948 143.902C189.282 93.8231 268.347 163.092 221.995 217.135Z" fill="#FF395C"/>
</svg>
