<svg width="362" height="439" viewBox="0 0 362 439" fill="none" xmlns="http://www.w3.org/2000/svg">
<path d="M38.7975 295.086C-50.1025 186.486 23.3975 15.6862 161.698 1.08622C326.798 -16.3138 425.098 179.286 315.198 304.186L181.598 438.586L38.7975 295.086Z" fill="#FF395C"/>
<path d="M289.498 182.586C288.598 162.086 281.998 143.186 271.098 127.286C280.198 147.386 266.698 161.786 246.198 161.786H138.298C147.198 145.886 164.198 135.186 183.598 135.186H120.898C102.498 135.186 77.5977 157.386 77.5977 187.186C77.5977 216.886 102.498 239.186 120.898 239.186H183.598C165.498 239.186 149.598 229.886 140.298 215.886H252.198C271.898 215.886 290.398 202.386 289.598 182.686L289.498 182.586Z" fill="url(#paint0_linear_797_2106)"/>
<path d="M183.598 293.186C226.498 293.186 263.498 267.686 280.198 230.986H211.698C203.798 236.086 194.398 239.086 184.398 239.186C184.198 239.186 183.898 239.186 183.698 239.186H131.298C103.598 239.186 77.6978 216.886 77.6978 187.186C77.6978 245.586 124.998 293.186 183.698 293.186H183.598Z" fill="url(#paint1_linear_797_2106)"/>
<path d="M183.598 81.1862C125.198 81.1862 77.5977 128.486 77.5977 187.186C77.5977 157.486 104.298 135.186 131.198 135.186H183.598C202.998 135.186 219.998 145.886 228.898 161.786H246.098C266.598 161.786 280.098 147.386 270.998 127.286C251.898 99.4862 219.898 81.1862 183.498 81.1862H183.598Z" fill="url(#paint2_linear_797_2106)"/>
<defs>
<linearGradient id="paint0_linear_797_2106" x1="77.5977" y1="183.286" x2="289.498" y2="183.286" gradientUnits="userSpaceOnUse">
<stop stop-color="#FF395C"/>
<stop offset="0.1" stop-color="#FF4F6E"/>
<stop offset="0.5" stop-color="#FF8A9E"/>
<stop offset="0.9" stop-color="#FFE6EB"/>
<stop offset="1" stop-color="white"/>
</linearGradient>
<linearGradient id="paint1_linear_797_2106" x1="248.498" y1="241.086" x2="84.5978" y2="239.886" gradientUnits="userSpaceOnUse">
<stop stop-color="#FF395C"/>
<stop offset="0.1" stop-color="#FF4F6E"/>
<stop offset="0.5" stop-color="#FF8A9E"/>
<stop offset="0.9" stop-color="#FFE6EB"/>
<stop offset="1" stop-color="white"/>
</linearGradient>
<linearGradient id="paint2_linear_797_2106" x1="246.098" y1="177.786" x2="108.598" y2="120.686" gradientUnits="userSpaceOnUse">
<stop stop-color="#FF395C"/>
<stop offset="0.1" stop-color="#FF4F6E"/>
<stop offset="0.5" stop-color="#FF8A9E"/>
<stop offset="0.9" stop-color="#FFE6EB"/>
<stop offset="1" stop-color="white"/>
</linearGradient>
</defs>
</svg>
