<svg width="505" height="57" viewBox="0 0 505 57" fill="none" xmlns="http://www.w3.org/2000/svg">
<path d="M488.904 47.9564C490.864 47.9564 492.249 47.7653 493.062 47.383C493.874 47.0007 494.28 46.2599 494.28 45.1608C494.28 44.3006 493.755 43.5599 492.703 42.9386C491.652 42.2696 490.051 41.5288 487.901 40.7164C486.228 40.0951 484.699 39.45 483.313 38.781C481.975 38.1119 480.828 37.3234 479.872 36.4154C478.916 35.4596 478.176 34.3366 477.65 33.0463C477.124 31.756 476.861 30.2028 476.861 28.3868C476.861 24.8505 478.176 22.0548 480.804 19.9999C483.432 17.9449 487.04 16.9175 491.628 16.9175C493.922 16.9175 496.12 17.1325 498.223 17.5626C500.326 17.9449 501.998 18.375 503.241 18.8529L501.377 27.1682C500.135 26.7381 498.773 26.3558 497.291 26.0213C495.857 25.6868 494.233 25.5195 492.417 25.5195C489.071 25.5195 487.399 26.4514 487.399 28.3152C487.399 28.7453 487.471 29.1276 487.614 29.4621C487.757 29.7966 488.044 30.1311 488.474 30.4657C488.904 30.7524 489.478 31.0869 490.195 31.4692C490.959 31.8038 491.915 32.1861 493.062 32.6162C495.404 33.4764 497.339 34.3366 498.868 35.1968C500.397 36.0092 501.592 36.9172 502.452 37.9207C503.36 38.8765 503.982 39.9518 504.316 41.1465C504.698 42.3412 504.89 43.7271 504.89 45.3042C504.89 49.0317 503.48 51.8512 500.66 53.7628C497.889 55.6744 493.946 56.6301 488.833 56.6301C485.487 56.6301 482.692 56.3434 480.446 55.7699C478.247 55.1965 476.718 54.7186 475.858 54.3363L477.65 45.6626C479.466 46.3794 481.33 46.9529 483.241 47.383C485.153 47.7653 487.04 47.9564 488.904 47.9564Z" fill="#FF395C"/>
<path d="M445.815 31.5407C446.867 30.3938 447.942 29.1991 449.041 27.9566C450.188 26.7141 451.287 25.4954 452.339 24.3007C453.39 23.0582 454.37 21.8874 455.278 20.7882C456.233 19.6891 457.046 18.7333 457.715 17.9209H470.403C467.87 20.836 465.385 23.6317 462.948 26.3079C460.558 28.9362 457.93 31.6602 455.063 34.4798C456.496 35.7701 457.978 37.3232 459.507 39.1392C461.036 40.9074 462.518 42.7473 463.951 44.6588C465.385 46.5704 466.699 48.4819 467.894 50.3935C469.089 52.3051 470.092 54.0494 470.905 55.6264H458.647C457.882 54.3839 456.998 53.0219 455.994 51.5404C455.039 50.0112 454.011 48.5058 452.912 47.0244C451.813 45.4951 450.642 44.0376 449.4 42.6517C448.205 41.2658 447.01 40.095 445.815 39.1392V55.6264H435.135V1.7204L445.815 0V31.5407Z" fill="#FF395C"/>
<path d="M425.427 36.7021C425.427 39.665 424.997 42.389 424.137 44.8741C423.277 47.3113 422.034 49.414 420.409 51.1822C418.784 52.9026 416.825 54.2407 414.531 55.1965C412.285 56.1523 409.752 56.6301 406.933 56.6301C404.161 56.6301 401.628 56.1523 399.334 55.1965C397.088 54.2407 395.153 52.9026 393.528 51.1822C391.903 49.414 390.637 47.3113 389.729 44.8741C388.821 42.389 388.367 39.665 388.367 36.7021C388.367 33.7392 388.821 31.0391 389.729 28.6019C390.684 26.1647 391.975 24.0858 393.6 22.3654C395.272 20.645 397.232 19.3069 399.478 18.3512C401.772 17.3954 404.257 16.9175 406.933 16.9175C409.657 16.9175 412.142 17.3954 414.388 18.3512C416.682 19.3069 418.641 20.645 420.266 22.3654C421.891 24.0858 423.157 26.1647 424.065 28.6019C424.973 31.0391 425.427 33.7392 425.427 36.7021ZM414.531 36.7021C414.531 33.4047 413.862 30.8241 412.524 28.9603C411.234 27.0487 409.37 26.093 406.933 26.093C404.495 26.093 402.608 27.0487 401.27 28.9603C399.932 30.8241 399.263 33.4047 399.263 36.7021C399.263 39.9996 399.932 42.628 401.27 44.5873C402.608 46.4989 404.495 47.4547 406.933 47.4547C409.37 47.4547 411.234 46.4989 412.524 44.5873C413.862 42.628 414.531 39.9996 414.531 36.7021Z" fill="#FF395C"/>
<path d="M380.451 36.7021C380.451 39.665 380.021 42.389 379.161 44.8741C378.301 47.3113 377.058 49.414 375.433 51.1822C373.808 52.9026 371.849 54.2407 369.555 55.1965C367.309 56.1523 364.776 56.6301 361.957 56.6301C359.185 56.6301 356.652 56.1523 354.358 55.1965C352.112 54.2407 350.177 52.9026 348.552 51.1822C346.927 49.414 345.661 47.3113 344.753 44.8741C343.845 42.389 343.391 39.665 343.391 36.7021C343.391 33.7392 343.845 31.0391 344.753 28.6019C345.709 26.1647 346.999 24.0858 348.624 22.3654C350.296 20.645 352.256 19.3069 354.502 18.3512C356.796 17.3954 359.281 16.9175 361.957 16.9175C364.681 16.9175 367.166 17.3954 369.412 18.3512C371.706 19.3069 373.665 20.645 375.29 22.3654C376.915 24.0858 378.181 26.1647 379.089 28.6019C379.997 31.0391 380.451 33.7392 380.451 36.7021ZM369.555 36.7021C369.555 33.4047 368.886 30.8241 367.548 28.9603C366.258 27.0487 364.394 26.093 361.957 26.093C359.52 26.093 357.632 27.0487 356.294 28.9603C354.956 30.8241 354.287 33.4047 354.287 36.7021C354.287 39.9996 354.956 42.628 356.294 44.5873C357.632 46.4989 359.52 47.4547 361.957 47.4547C364.394 47.4547 366.258 46.4989 367.548 44.5873C368.886 42.628 369.555 39.9996 369.555 36.7021Z" fill="#FF395C"/>
<path d="M324.644 36.4869C324.644 29.6053 322.112 26.1645 317.046 26.1645C315.947 26.1645 314.848 26.3078 313.749 26.5946C312.697 26.8813 311.837 27.2397 311.168 27.6698V47.0961C311.694 47.1916 312.363 47.2872 313.175 47.3828C313.987 47.4306 314.872 47.4545 315.827 47.4545C318.742 47.4545 320.941 46.4509 322.422 44.4438C323.904 42.4366 324.644 39.7844 324.644 36.4869ZM335.54 36.7736C335.54 39.7844 335.086 42.5083 334.178 44.9456C333.318 47.3828 332.052 49.4616 330.379 51.182C328.706 52.9024 326.652 54.2405 324.214 55.1963C321.777 56.1043 319.005 56.5583 315.899 56.5583C314.609 56.5583 313.247 56.4866 311.813 56.3432C310.427 56.2477 309.041 56.1043 307.655 55.9131C306.317 55.722 305.027 55.5069 303.785 55.268C302.542 54.9813 301.443 54.6945 300.487 54.4078V1.7204L311.168 0V18.7811C312.363 18.2554 313.605 17.8492 314.895 17.5625C316.186 17.2757 317.572 17.1324 319.053 17.1324C321.729 17.1324 324.095 17.6103 326.15 18.566C328.205 19.474 329.925 20.7882 331.311 22.5086C332.697 24.229 333.748 26.3078 334.465 28.7451C335.182 31.1345 335.54 33.8107 335.54 36.7736Z" fill="#FF395C"/>
<path d="M246.241 36.4869C246.241 39.7844 246.981 42.4366 248.463 44.4438C249.944 46.4509 252.143 47.4545 255.058 47.4545C256.014 47.4545 256.898 47.4306 257.71 47.3828C258.522 47.2872 259.192 47.1916 259.717 47.0961V27.6698C259.048 27.2397 258.164 26.8813 257.065 26.5946C256.014 26.3078 254.938 26.1645 253.839 26.1645C248.773 26.1645 246.241 29.6053 246.241 36.4869ZM270.398 54.4078C269.442 54.6945 268.343 54.9813 267.101 55.268C265.858 55.5069 264.544 55.722 263.158 55.9131C261.82 56.1043 260.434 56.2477 259 56.3432C257.614 56.4866 256.276 56.5583 254.986 56.5583C251.88 56.5583 249.108 56.1043 246.671 55.1963C244.234 54.2883 242.179 52.998 240.506 51.3254C238.833 49.605 237.543 47.5501 236.635 45.1606C235.775 42.7234 235.345 39.9994 235.345 36.9887C235.345 33.9302 235.727 31.1823 236.492 28.7451C237.256 26.2601 238.356 24.1573 239.789 22.4369C241.223 20.7165 242.967 19.4023 245.022 18.4943C247.125 17.5864 249.514 17.1324 252.19 17.1324C253.672 17.1324 254.986 17.2757 256.133 17.5625C257.328 17.8492 258.522 18.2554 259.717 18.7811V1.7204L270.398 0V54.4078Z" fill="black"/>
<path d="M192.049 37.0606C192.049 33.7153 192.551 30.8002 193.554 28.3152C194.606 25.7823 195.968 23.6796 197.64 22.007C199.313 20.3344 201.225 19.068 203.375 18.2078C205.573 17.3476 207.819 16.9175 210.113 16.9175C215.466 16.9175 219.695 18.5662 222.801 21.8636C225.908 25.1133 227.461 29.9161 227.461 36.272C227.461 36.8933 227.437 37.5862 227.389 38.3509C227.341 39.0677 227.293 39.7128 227.246 40.2863H203.017C203.256 42.4846 204.283 44.2289 206.099 45.5192C207.915 46.8095 210.352 47.4547 213.411 47.4547C215.37 47.4547 217.282 47.2874 219.145 46.9529C221.057 46.5706 222.61 46.1166 223.805 45.5909L225.239 54.2646C224.665 54.5513 223.9 54.8381 222.945 55.1248C221.989 55.4115 220.914 55.6505 219.719 55.8416C218.572 56.0806 217.329 56.2717 215.991 56.4151C214.653 56.5585 213.315 56.6301 211.977 56.6301C208.584 56.6301 205.621 56.1284 203.088 55.1248C200.603 54.1212 198.524 52.7592 196.852 51.0388C195.227 49.2706 194.008 47.1918 193.196 44.8024C192.431 42.4129 192.049 39.8323 192.049 37.0606ZM217.138 32.9746C217.09 32.0666 216.923 31.1825 216.637 30.3223C216.398 29.4621 215.991 28.6975 215.418 28.0284C214.892 27.3594 214.199 26.8098 213.339 26.3797C212.527 25.9496 211.499 25.7346 210.257 25.7346C209.062 25.7346 208.034 25.9496 207.174 26.3797C206.314 26.762 205.597 27.2877 205.024 27.9567C204.45 28.6258 203.996 29.4143 203.662 30.3223C203.375 31.1825 203.16 32.0666 203.017 32.9746H217.138Z" fill="black"/>
<path d="M164.226 55.6264C161.789 50.8475 159.304 45.2562 156.771 38.8525C154.286 32.4488 151.921 25.4716 149.675 17.9209H161.001C161.478 19.7847 162.028 21.8157 162.649 24.014C163.318 26.1645 163.987 28.3628 164.656 30.6089C165.373 32.8072 166.066 34.9577 166.735 37.0604C167.452 39.1631 168.145 41.0747 168.814 42.7951C169.435 41.0747 170.104 39.1631 170.821 37.0604C171.538 34.9577 172.231 32.8072 172.9 30.6089C173.617 28.3628 174.286 26.1645 174.907 24.014C175.576 21.8157 176.15 19.7847 176.628 17.9209H187.667C185.421 25.4716 183.031 32.4488 180.498 38.8525C178.013 45.2562 175.552 50.8475 173.115 55.6264H164.226Z" fill="black"/>
<path d="M145.684 56.3432C142.578 56.2955 140.045 55.9609 138.086 55.3397C136.174 54.7184 134.645 53.8582 133.498 52.7591C132.399 51.6121 131.634 50.2501 131.204 48.6731C130.822 47.0483 130.631 45.2323 130.631 43.2252V1.7204L141.312 0V41.0746C141.312 42.0304 141.383 42.8906 141.527 43.6553C141.67 44.4199 141.933 45.065 142.315 45.5907C142.745 46.1164 143.343 46.5465 144.107 46.881C144.872 47.2155 145.899 47.4306 147.19 47.5262L145.684 56.3432Z" fill="black"/>
<path d="M120.923 36.7021C120.923 39.665 120.493 42.389 119.633 44.8741C118.773 47.3113 117.53 49.414 115.905 51.1822C114.28 52.9026 112.321 54.2407 110.027 55.1965C107.781 56.1523 105.248 56.6301 102.429 56.6301C99.657 56.6301 97.1242 56.1523 94.8303 55.1965C92.5842 54.2407 90.6488 52.9026 89.0239 51.1822C87.3991 49.414 86.1327 47.3113 85.2247 44.8741C84.3167 42.389 83.8627 39.665 83.8627 36.7021C83.8627 33.7392 84.3167 31.0391 85.2247 28.6019C86.1805 26.1647 87.4708 24.0858 89.0956 22.3654C90.7682 20.645 92.7276 19.3069 94.9737 18.3512C97.2675 17.3954 99.7526 16.9175 102.429 16.9175C105.153 16.9175 107.638 17.3954 109.884 18.3512C112.178 19.3069 114.137 20.645 115.762 22.3654C117.387 24.0858 118.653 26.1647 119.561 28.6019C120.469 31.0391 120.923 33.7392 120.923 36.7021ZM110.027 36.7021C110.027 33.4047 109.358 30.8241 108.02 28.9603C106.73 27.0487 104.866 26.093 102.429 26.093C99.9915 26.093 98.1039 27.0487 96.7658 28.9603C95.4277 30.8241 94.7586 33.4047 94.7586 36.7021C94.7586 39.9996 95.4277 42.628 96.7658 44.5873C98.1039 46.4989 99.9915 47.4547 102.429 47.4547C104.866 47.4547 106.73 46.4989 108.02 44.5873C109.358 42.628 110.027 39.9996 110.027 36.7021Z" fill="black"/>
<path d="M56.0401 55.6264C53.6029 50.8475 51.1178 45.2562 48.585 38.8525C46.1 32.4488 43.7344 25.4716 41.4883 17.9209H52.8143C53.2922 19.7847 53.8418 21.8157 54.4631 24.014C55.1321 26.1645 55.8012 28.3628 56.4702 30.6089C57.187 32.8072 57.88 34.9577 58.549 37.0604C59.2659 39.1631 59.9588 41.0747 60.6278 42.7951C61.2491 41.0747 61.9181 39.1631 62.635 37.0604C63.3518 34.9577 64.0448 32.8072 64.7138 30.6089C65.4306 28.3628 66.0997 26.1645 66.7209 24.014C67.39 21.8157 67.9635 19.7847 68.4413 17.9209H79.4806C77.2345 25.4716 74.8451 32.4488 72.3123 38.8525C69.8272 45.2562 67.3661 50.8475 64.9288 55.6264H56.0401Z" fill="black"/>
<path d="M0.70166 37.0606C0.70166 33.7153 1.20344 30.8002 2.20701 28.3152C3.25837 25.7823 4.62036 23.6796 6.29297 22.007C7.96559 20.3344 9.87715 19.068 12.0277 18.2078C14.2259 17.3476 16.472 16.9175 18.7659 16.9175C24.1183 16.9175 28.3476 18.5662 31.4539 21.8636C34.5602 25.1133 36.1133 29.9161 36.1133 36.272C36.1133 36.8933 36.0894 37.5862 36.0416 38.3509C35.9938 39.0677 35.9461 39.7128 35.8983 40.2863H11.6692C11.9082 42.4846 12.9356 44.2289 14.7516 45.5192C16.5676 46.8095 19.0049 47.4547 22.0633 47.4547C24.0227 47.4547 25.9343 47.2874 27.798 46.9529C29.7096 46.5706 31.2627 46.1166 32.4575 45.5909L33.8911 54.2646C33.3177 54.5513 32.553 54.8381 31.5973 55.1248C30.6415 55.4115 29.5662 55.6505 28.3715 55.8416C27.2246 56.0806 25.982 56.2717 24.644 56.4151C23.3059 56.5585 21.9678 56.6301 20.6297 56.6301C17.2367 56.6301 14.2737 56.1284 11.7409 55.1248C9.25589 54.1212 7.17707 52.7592 5.50445 51.0388C3.87963 49.2706 2.66101 47.1918 1.8486 44.8024C1.08397 42.4129 0.70166 39.8323 0.70166 37.0606ZM25.7909 32.9746C25.7431 32.0666 25.5758 31.1825 25.2891 30.3223C25.0502 29.4621 24.644 28.6975 24.0705 28.0284C23.5448 27.3594 22.8519 26.8098 21.9917 26.3797C21.1792 25.9496 20.1518 25.7346 18.9093 25.7346C17.7145 25.7346 16.6871 25.9496 15.8269 26.3797C14.9667 26.762 14.2498 27.2877 13.6764 27.9567C13.1029 28.6258 12.6489 29.4143 12.3144 30.3223C12.0277 31.1825 11.8126 32.0666 11.6692 32.9746H25.7909Z" fill="black"/>
</svg>
